<svg width="28" height="28" viewBox="0 0 28 28" fill="none" xmlns="http://www.w3.org/2000/svg">
<path fill-rule="evenodd" clip-rule="evenodd" d="M5.25 1.5C5.25 0.8125 4.6875 0.25 4 0.25C3.3125 0.25 2.75 0.8125 2.75 1.5V6.5H0.25V19C0.25 20.625 1.3 22 2.75 22.525V27.75H5.25V22.525C6.7 22 7.75 20.625 7.75 19V6.5H5.25V1.5ZM4 20.25C3.3125 20.25 2.75 19.6875 2.75 19V16.5H5.25V19C5.25 19.6875 4.6875 20.25 4 20.25ZM2.75 9.00002V14H5.25V9.00002H2.75ZM15.25 1.5C15.25 0.8125 14.6875 0.25 14 0.25C13.3125 0.25 12.75 0.8125 12.75 1.5V6.5H10.25V19C10.25 20.625 11.3 22 12.75 22.525V27.75H15.25V22.525C16.7 22 17.75 20.625 17.75 19V6.5H15.25V1.5ZM12.75 19C12.75 19.6875 13.3125 20.25 14 20.25C14.6875 20.25 15.25 19.6875 15.25 19V16.5H12.75V19ZM12.75 14V9.00002H15.25V14H12.75ZM25.25 1.5V6.5H27.75V19C27.75 20.625 26.7 22 25.25 22.525V27.75H22.75V22.525C21.3 22 20.25 20.625 20.25 19V6.5H22.75V1.5C22.75 0.8125 23.3125 0.25 24 0.25C24.6875 0.25 25.25 0.8125 25.25 1.5ZM24 20.25C23.3125 20.25 22.75 19.6875 22.75 19V16.5H25.25V19C25.25 19.6875 24.6875 20.25 24 20.25ZM22.75 9.00002V14H25.25V9.00002H22.75Z" fill="black" fill-opacity="0.54"/>
</svg>
