<svg width="30" height="30" viewBox="0 0 30 30" fill="none" xmlns="http://www.w3.org/2000/svg">
<path d="M20.3572 21.4284C20.083 21.4284 19.8088 21.3238 19.5996 21.1143L8.88544 10.4001C8.46682 9.98152 8.46682 9.30357 8.88544 8.88517C9.30384 8.46678 9.98201 8.46655 10.4004 8.88517L21.1146 19.5994C21.5332 20.018 21.5332 20.6959 21.1146 21.1143C20.9054 21.3238 20.6314 21.4284 20.3572 21.4284Z" fill="#757575"/>
<path d="M9.64281 21.4284C9.36861 21.4284 9.09464 21.3238 8.88544 21.1144C8.46682 20.696 8.46682 20.0178 8.88544 19.5994L19.5996 8.88526C20.0183 8.46663 20.6962 8.46663 21.1146 8.88526C21.533 9.30365 21.5332 9.98183 21.1146 10.4002L10.4004 21.1144C10.1912 21.3238 9.91701 21.4284 9.64281 21.4284Z" fill="#757575"/>
</svg>
