<svg width="39" height="19" viewBox="0 0 39 19" fill="none" xmlns="http://www.w3.org/2000/svg">
<path d="M2.42812 0.68V14H0.376123V0.68H2.42812ZM9.42422 14.162C8.48822 14.162 7.64222 13.952 6.88622 13.532C6.13022 13.1 5.53622 12.5 5.10422 11.732C4.67222 10.952 4.45622 10.052 4.45622 9.032C4.45622 8.024 4.67822 7.13 5.12222 6.35C5.56622 5.57 6.17222 4.97 6.94022 4.55C7.70822 4.13 8.56622 3.92 9.51422 3.92C10.4622 3.92 11.3202 4.13 12.0882 4.55C12.8562 4.97 13.4622 5.57 13.9062 6.35C14.3502 7.13 14.5722 8.024 14.5722 9.032C14.5722 10.04 14.3442 10.934 13.8882 11.714C13.4322 12.494 12.8082 13.1 12.0162 13.532C11.2362 13.952 10.3722 14.162 9.42422 14.162ZM9.42422 12.38C9.95222 12.38 10.4442 12.254 10.9002 12.002C11.3682 11.75 11.7462 11.372 12.0342 10.868C12.3222 10.364 12.4662 9.752 12.4662 9.032C12.4662 8.312 12.3282 7.706 12.0522 7.214C11.7762 6.71 11.4102 6.332 10.9542 6.08C10.4982 5.828 10.0062 5.702 9.47822 5.702C8.95022 5.702 8.45822 5.828 8.00222 6.08C7.55822 6.332 7.20422 6.71 6.94022 7.214C6.67622 7.706 6.54422 8.312 6.54422 9.032C6.54422 10.1 6.81422 10.928 7.35422 11.516C7.90622 12.092 8.59622 12.38 9.42422 12.38ZM20.5967 3.92C21.3647 3.92 22.0427 4.076 22.6307 4.388C23.2307 4.688 23.6987 5.066 24.0347 5.522V4.082H26.1047V14.162C26.1047 15.074 25.9127 15.884 25.5287 16.592C25.1447 17.312 24.5867 17.876 23.8547 18.284C23.1347 18.692 22.2707 18.896 21.2627 18.896C19.9187 18.896 18.8027 18.578 17.9147 17.942C17.0267 17.318 16.5227 16.466 16.4027 15.386H18.4367C18.5927 15.902 18.9227 16.316 19.4267 16.628C19.9427 16.952 20.5547 17.114 21.2627 17.114C22.0907 17.114 22.7567 16.862 23.2607 16.358C23.7767 15.854 24.0347 15.122 24.0347 14.162V12.506C23.6867 12.974 23.2127 13.37 22.6127 13.694C22.0247 14.006 21.3527 14.162 20.5967 14.162C19.7327 14.162 18.9407 13.946 18.2207 13.514C17.5127 13.07 16.9487 12.458 16.5287 11.678C16.1207 10.886 15.9167 9.992 15.9167 8.996C15.9167 8 16.1207 7.118 16.5287 6.35C16.9487 5.582 17.5127 4.988 18.2207 4.568C18.9407 4.136 19.7327 3.92 20.5967 3.92ZM24.0347 9.032C24.0347 8.348 23.8907 7.754 23.6027 7.25C23.3267 6.746 22.9607 6.362 22.5047 6.098C22.0487 5.834 21.5567 5.702 21.0287 5.702C20.5007 5.702 20.0087 5.834 19.5527 6.098C19.0967 6.35 18.7247 6.728 18.4367 7.232C18.1607 7.724 18.0227 8.312 18.0227 8.996C18.0227 9.68 18.1607 10.28 18.4367 10.796C18.7247 11.312 19.0967 11.708 19.5527 11.984C20.0207 12.248 20.5127 12.38 21.0287 12.38C21.5567 12.38 22.0487 12.248 22.5047 11.984C22.9607 11.72 23.3267 11.336 23.6027 10.832C23.8907 10.316 24.0347 9.716 24.0347 9.032ZM33.102 14.162C32.166 14.162 31.32 13.952 30.564 13.532C29.808 13.1 29.214 12.5 28.782 11.732C28.35 10.952 28.134 10.052 28.134 9.032C28.134 8.024 28.356 7.13 28.8 6.35C29.244 5.57 29.85 4.97 30.618 4.55C31.386 4.13 32.244 3.92 33.192 3.92C34.14 3.92 34.998 4.13 35.766 4.55C36.534 4.97 37.14 5.57 37.584 6.35C38.028 7.13 38.25 8.024 38.25 9.032C38.25 10.04 38.022 10.934 37.566 11.714C37.11 12.494 36.486 13.1 35.694 13.532C34.914 13.952 34.05 14.162 33.102 14.162ZM33.102 12.38C33.63 12.38 34.122 12.254 34.578 12.002C35.046 11.75 35.424 11.372 35.712 10.868C36 10.364 36.144 9.752 36.144 9.032C36.144 8.312 36.006 7.706 35.73 7.214C35.454 6.71 35.088 6.332 34.632 6.08C34.176 5.828 33.684 5.702 33.156 5.702C32.628 5.702 32.136 5.828 31.68 6.08C31.236 6.332 30.882 6.71 30.618 7.214C30.354 7.706 30.222 8.312 30.222 9.032C30.222 10.1 30.492 10.928 31.032 11.516C31.584 12.092 32.274 12.38 33.102 12.38Z" fill="#333333"/>
</svg>
