<svg width="15" height="14" viewBox="0 0 15 14" fill="none" xmlns="http://www.w3.org/2000/svg">
<path d="M14.8167 13.0043L10.5511 9.02304C11.3774 8.07047 11.8749 6.86006 11.8749 5.54175C11.8749 2.48627 9.21114 0.00012207 5.93742 0.00012207C2.6637 0.00012207 0 2.48625 0 5.54172C0 8.59719 2.66373 11.0833 5.93745 11.0833C7.34993 11.0833 8.6468 10.619 9.66741 9.84785L13.933 13.8291C14.0549 13.9428 14.2149 14 14.3749 14C14.5349 14 14.6949 13.9428 14.8168 13.8291C15.0611 13.601 15.0611 13.2323 14.8167 13.0043ZM5.93745 9.91668C3.35247 9.91668 1.25 7.95437 1.25 5.54172C1.25 3.12907 3.35247 1.16676 5.93745 1.16676C8.52244 1.16676 10.6249 3.12907 10.6249 5.54172C10.6249 7.95437 8.52241 9.91668 5.93745 9.91668Z" fill="#333333"/>
</svg>
