<svg width="25" height="25" viewBox="0 0 25 25" fill="none" xmlns="http://www.w3.org/2000/svg">
<path fill-rule="evenodd" clip-rule="evenodd" d="M17.4097 18.4428C18.0417 17.8716 18.8681 17.507 19.7917 17.507C21.7483 17.507 23.3402 19.099 23.3402 21.0557C23.3402 23.0121 21.7483 24.6042 19.7917 24.6042C17.8351 24.6042 16.2431 23.0121 16.2431 21.0557C16.2431 20.7883 16.2795 20.5209 16.3403 20.2657L7.6875 15.2101C7.03125 15.8178 6.1684 16.1945 5.20833 16.1945C3.19098 16.1945 1.5625 14.566 1.5625 12.5487C1.5625 10.5313 3.19098 8.90286 5.20833 8.90286C6.1684 8.90286 7.03125 9.27959 7.6875 9.88723L16.2552 4.89244C16.1944 4.61292 16.1458 4.3334 16.1458 4.04173C16.1458 2.02438 17.7743 0.395905 19.7917 0.395905C21.809 0.395905 23.4375 2.02438 23.4375 4.04173C23.4375 6.05911 21.809 7.68757 19.7917 7.68757C18.8316 7.68757 17.9688 7.31084 17.3125 6.70319L8.74479 11.698C8.80556 11.9775 8.85417 12.257 8.85417 12.5487C8.85417 12.8403 8.80556 13.1199 8.74479 13.3994L17.4097 18.4428ZM21.0069 4.04173C21.0069 3.37334 20.4601 2.82646 19.7917 2.82646C19.1233 2.82646 18.5764 3.37334 18.5764 4.04173C18.5764 4.71015 19.1233 5.25703 19.7917 5.25703C20.4601 5.25703 21.0069 4.71015 21.0069 4.04173ZM5.20833 13.764C4.53994 13.764 3.99306 13.2171 3.99306 12.5487C3.99306 11.8803 4.53994 11.3334 5.20833 11.3334C5.87673 11.3334 6.4236 11.8803 6.4236 12.5487C6.4236 13.2171 5.87673 13.764 5.20833 13.764ZM18.5764 21.0799C18.5764 21.7484 19.1233 22.2953 19.7917 22.2953C20.4601 22.2953 21.0069 21.7484 21.0069 21.0799C21.0069 20.4115 20.4601 19.8647 19.7917 19.8647C19.1233 19.8647 18.5764 20.4115 18.5764 21.0799Z" fill="#8D6A20"/>
</svg>
